<svg width="1200" height="800" viewBox="0 0 1200 800" xmlns="http://www.w3.org/2000/svg">
  <defs>
    <linearGradient id="bg" x1="0" y1="0" x2="1" y2="1">
      <stop offset="0" stop-color="#f2f3f5"/>
      <stop offset="1" stop-color="#ffffff"/>
    </linearGradient>
    <linearGradient id="sky" x1="0" y1="0" x2="0" y2="1">
      <stop offset="0" stop-color="#d9f0ff"/>
      <stop offset="1" stop-color="#ffffff"/>
    </linearGradient>
    <filter id="shadow" x="-20%" y="-20%" width="140%" height="140%">
      <feDropShadow dx="0" dy="18" stdDeviation="18" flood-color="#111827" flood-opacity="0.12"/>
    </filter>
  </defs>
  <rect width="1200" height="800" fill="url(#bg)"/>
  <rect x="0" y="0" width="1200" height="420" fill="url(#sky)"/>
  <g filter="url(#shadow)">
    <rect x="170" y="220" width="860" height="430" rx="34" fill="#ffffff"/>
  </g>
  <rect x="210" y="260" width="380" height="180" rx="20" fill="#e6e7eb"/>
  <rect x="620" y="260" width="370" height="110" rx="18" fill="#f2f3f5"/>
  <rect x="620" y="390" width="270" height="40" rx="12" fill="#f2f3f5"/>
  <rect x="620" y="450" width="310" height="38" rx="12" fill="#f2f3f5"/>
  <path d="M280 430l110-90 110 90v140H280V430z" fill="#8a8f00" opacity="0.18"/>
  <path d="M312 430l78-63 78 63v140H312V430z" fill="#8a8f00" opacity="0.26"/>
  <rect x="240" y="610" width="140" height="16" rx="8" fill="#8a8f00" opacity="0.32"/>
  <rect x="410" y="610" width="170" height="16" rx="8" fill="#111827" opacity="0.10"/>
  <rect x="620" y="560" width="230" height="56" rx="16" fill="#8a8f00" opacity="0.14"/>
  <circle cx="930" cy="588" r="14" fill="#8a8f00" opacity="0.30"/>
</svg>

