<svg width="1200" height="800" viewBox="0 0 1200 800" xmlns="http://www.w3.org/2000/svg">
  <defs>
    <linearGradient id="bg" x1="0" y1="0" x2="1" y2="1">
      <stop offset="0" stop-color="#f2f3f5"/>
      <stop offset="1" stop-color="#ffffff"/>
    </linearGradient>
    <linearGradient id="glass" x1="0" y1="0" x2="1" y2="1">
      <stop offset="0" stop-color="#cfe9ff"/>
      <stop offset="1" stop-color="#ffffff"/>
    </linearGradient>
    <filter id="shadow" x="-20%" y="-20%" width="140%" height="140%">
      <feDropShadow dx="0" dy="18" stdDeviation="18" flood-color="#111827" flood-opacity="0.12"/>
    </filter>
  </defs>
  <rect width="1200" height="800" fill="url(#bg)"/>
  <g filter="url(#shadow)">
    <rect x="190" y="130" width="820" height="540" rx="40" fill="#ffffff"/>
  </g>
  <rect x="240" y="180" width="410" height="440" rx="30" fill="#e6e7eb"/>
  <rect x="690" y="180" width="270" height="210" rx="26" fill="url(#glass)"/>
  <rect x="690" y="420" width="270" height="200" rx="26" fill="#f2f3f5"/>
  <g opacity="0.22" fill="#8a8f00">
    <rect x="275" y="215" width="120" height="120" rx="22"/>
    <rect x="415" y="215" width="120" height="120" rx="22"/>
    <rect x="555" y="215" width="70" height="120" rx="22"/>
    <rect x="275" y="355" width="350" height="30" rx="15"/>
    <rect x="275" y="405" width="270" height="26" rx="13"/>
  </g>
  <circle cx="885" cy="300" r="44" fill="#8a8f00" opacity="0.12"/>
  <path d="M870 300l10 10 22-26" stroke="#8a8f00" stroke-width="10" stroke-linecap="round" stroke-linejoin="round" opacity="0.55"/>
</svg>

