<svg width="1200" height="800" viewBox="0 0 1200 800" xmlns="http://www.w3.org/2000/svg">
  <defs>
    <linearGradient id="bg" x1="0" y1="0" x2="1" y2="1">
      <stop offset="0" stop-color="#ffffff"/>
      <stop offset="1" stop-color="#f2f3f5"/>
    </linearGradient>
    <filter id="shadow" x="-20%" y="-20%" width="140%" height="140%">
      <feDropShadow dx="0" dy="18" stdDeviation="18" flood-color="#111827" flood-opacity="0.12"/>
    </filter>
  </defs>
  <rect width="1200" height="800" fill="url(#bg)"/>
  <g filter="url(#shadow)">
    <rect x="150" y="120" width="900" height="560" rx="40" fill="#ffffff"/>
  </g>
  <rect x="210" y="180" width="780" height="360" rx="26" fill="#e6e7eb"/>
  <g opacity="0.22" fill="#8a8f00">
    <rect x="250" y="220" width="160" height="140" rx="18"/>
    <rect x="430" y="220" width="160" height="140" rx="18"/>
    <rect x="610" y="220" width="160" height="140" rx="18"/>
    <rect x="790" y="220" width="160" height="140" rx="18"/>
  </g>
  <rect x="210" y="570" width="320" height="22" rx="11" fill="#111827" opacity="0.12"/>
  <rect x="210" y="608" width="500" height="18" rx="9" fill="#111827" opacity="0.08"/>
  <rect x="850" y="570" width="140" height="46" rx="16" fill="#8a8f00" opacity="0.18"/>
  <path d="M240 470h720" stroke="#111827" stroke-opacity="0.08" stroke-width="6" stroke-linecap="round"/>
</svg>

